<?xml version="1.0" encoding="UTF-8" standalone="no"?>
<!-- Svg Vector Icons : http://www.onlinewebfonts.com/icon -->

<svg
   version="1.1"
   x="0px"
   y="0px"
   viewBox="0 0 1000 1000"
   enable-background="new 0 0 1000 1000"
   xml:space="preserve"
   id="svg14"
   sodipodi:docname="logout.svg"
   inkscape:version="1.2.2 (b0a8486541, 2022-12-01)"
   xmlns:inkscape="http://www.inkscape.org/namespaces/inkscape"
   xmlns:sodipodi="http://sodipodi.sourceforge.net/DTD/sodipodi-0.dtd"
   xmlns="http://www.w3.org/2000/svg"
   xmlns:svg="http://www.w3.org/2000/svg"><defs
   id="defs18" /><sodipodi:namedview
   id="namedview16"
   pagecolor="#ffffff"
   bordercolor="#000000"
   borderopacity="0.25"
   inkscape:showpageshadow="2"
   inkscape:pageopacity="0.0"
   inkscape:pagecheckerboard="0"
   inkscape:deskcolor="#d1d1d1"
   showgrid="false"
   inkscape:zoom="0.743"
   inkscape:cx="500.67295"
   inkscape:cy="500.67295"
   inkscape:window-width="931"
   inkscape:window-height="1009"
   inkscape:window-x="0"
   inkscape:window-y="0"
   inkscape:window-maximized="1"
   inkscape:current-layer="svg14" />
<metadata
   id="metadata2"> Svg Vector Icons : http://www.onlinewebfonts.com/icon </metadata>
<g
   id="g12"
   style="fill:#d082eb;fill-opacity:1"><path
     d="M622.5,990H50.8C26.3,990,10,973.7,10,949.2V50.8C10,26.3,26.3,10,50.8,10h571.7c24.5,0,40.8,16.3,40.8,40.8v285.8c0,24.5-16.3,40.8-40.8,40.8s-40.8-16.3-40.8-40.8v-245h-490v816.7h490v-245c0-24.5,16.3-40.8,40.8-40.8s40.8,16.3,40.8,40.8v285.8C663.3,973.7,647,990,622.5,990z"
     id="path4"
     style="fill:#d082eb;fill-opacity:1" /><path
     d="M949.2,540.8H336.7c-24.5,0-40.8-16.3-40.8-40.8c0-24.5,16.3-40.8,40.8-40.8h612.5c24.5,0,40.8,16.3,40.8,40.8C990,524.5,973.7,540.8,949.2,540.8z"
     id="path6"
     style="fill:#d082eb;fill-opacity:1" /><path
     d="M949.2,540.8c-12.3,0-20.4-4.1-28.6-12.3L757.3,365.3c-16.3-16.3-16.3-40.8,0-57.2c16.3-16.3,40.8-16.3,57.2,0l163.3,163.3c16.3,16.3,16.3,40.8,0,57.2C969.6,536.8,961.4,540.8,949.2,540.8z"
     id="path8"
     style="fill:#d082eb;fill-opacity:1" /><path
     d="M785.8,704.2c-12.3,0-20.4-4.1-28.6-12.3c-16.3-16.3-16.3-40.8,0-57.2l163.3-163.3c16.3-16.3,40.8-16.3,57.2,0c16.3,16.3,16.3,40.8,0,57.2L814.4,691.9C806.3,700.1,798.1,704.2,785.8,704.2z"
     id="path10"
     style="fill:#d082eb;fill-opacity:1" /></g>
</svg>
